<svg xmlns="http://www.w3.org/2000/svg" viewBox="0 0 180 180">
  <defs>
    <linearGradient id="g" x1="0" y1="0" x2="1" y2="1">
      <stop offset="0" stop-color="#10b981"/>
      <stop offset="1" stop-color="#22d3ee"/>
    </linearGradient>
  </defs>
  <circle cx="90" cy="90" r="70" fill="#0f172a" stroke="#0ea5e9" stroke-width="4"/>
  <circle cx="90" cy="90" r="64" fill="none" stroke="#334155" stroke-dasharray="2 6" stroke-width="2"/>
  <g fill="url(#g)">
    <polygon points="90,8 98,24 82,24"/>
    <polygon points="90,172 98,156 82,156"/>
    <polygon points="8,90 24,82 24,98"/>
    <polygon points="172,90 156,82 156,98"/>
  </g>
  <text x="90" y="82" font-family="Sora, ui-sans-serif, system-ui" font-size="34" fill="#e5e7eb" text-anchor="middle" font-weight="800">DAEL</text>
  <text x="90" y="108" font-family="Sora, ui-sans-serif, system-ui" font-size="16" fill="#a3e635" text-anchor="middle" font-weight="700">VIAJES</text>
  <!-- avión -->
  <path d="M48 66l16 6-6-16 6-4 10 16 24 8-24 8-10 16-6-4 6-16-16 6z" fill="#22d3ee" opacity=".25"/>
</svg>

